HIERARCHY
ROOT locator2
{
  OFFSET 53.6172 30.1899 0.816905
  CHANNELS 6 Xposition Yposition Zposition Zrotation Xrotation Yrotation
  JOINT koshi
  {
    OFFSET 0 0 0
    CHANNELS 6 Xposition Yposition Zposition Zrotation Xrotation Yrotation
    JOINT sippo01
    {
      OFFSET 0 42.8363 -0.548134
      CHANNELS 6 Xposition Yposition Zposition Zrotation Xrotation Yrotation
      JOINT sippo02
      {
        OFFSET 0 44.0461 -3.28882
        CHANNELS 6 Xposition Yposition Zposition Zrotation Xrotation Yrotation
        JOINT sippo03
        {
          OFFSET 0 34.1929 -2.46662
          CHANNELS 6 Xposition Yposition Zposition Zrotation Xrotation Yrotation
          JOINT sippo04
          {
            OFFSET 0 30.0959 -1.75404
            CHANNELS 6 Xposition Yposition Zposition Zrotation Xrotation Yrotation
            JOINT sippo05
            {
              OFFSET 0 28.3637 -1.75404
              CHANNELS 6 Xposition Yposition Zposition Zrotation Xrotation Yrotation
              JOINT sippo06
              {
                OFFSET 0 31.6071 -3.2043
                CHANNELS 6 Xposition Yposition Zposition Zrotation Xrotation Yrotation
                End Site
                {
                  OFFSET 0 0 0
                }
              }
            }
          }
        }
      }
    }
    JOINT R_momo
    {
      OFFSET -27.891 13.5892 3.92723
      CHANNELS 6 Xposition Yposition Zposition Zrotation Xrotation Yrotation
      JOINT R_hiza
      {
        OFFSET 0 28.01 1.8232
        CHANNELS 6 Xposition Yposition Zposition Zrotation Xrotation Yrotation
        JOINT R_ashi
        {
          OFFSET 0 24.3992 -2.49174
          CHANNELS 6 Xposition Yposition Zposition Zrotation Xrotation Yrotation
          End Site
          {
            OFFSET 0 0 0
          }
        }
      }
    }
    JOINT L_momo
    {
      OFFSET 27.891 13.5892 3.92714
      CHANNELS 6 Xposition Yposition Zposition Zrotation Xrotation Yrotation
      JOINT L_hiza
      {
        OFFSET 0 28.0098 1.82319
        CHANNELS 6 Xposition Yposition Zposition Zrotation Xrotation Yrotation
        JOINT L_ashi
        {
          OFFSET 0 24.3992 -2.49171
          CHANNELS 6 Xposition Yposition Zposition Zrotation Xrotation Yrotation
          End Site
          {
            OFFSET 0 0 0
          }
        }
      }
    }
  }
  JOINT hara
  {
    OFFSET 0 2.15392 0
    CHANNELS 6 Xposition Yposition Zposition Zrotation Xrotation Yrotation
    JOINT mune
    {
      OFFSET 0 62.0609 0.472494
      CHANNELS 6 Xposition Yposition Zposition Zrotation Xrotation Yrotation
      JOINT R_kata
      {
        OFFSET 22.6695 9.65301 -5.3622
        CHANNELS 6 Xposition Yposition Zposition Zrotation Xrotation Yrotation
        JOINT R_hiji
        {
          OFFSET 0 25.813 1.69098
          CHANNELS 6 Xposition Yposition Zposition Zrotation Xrotation Yrotation
          JOINT R_te
          {
            OFFSET 0 28.5636 -0.966307
            CHANNELS 6 Xposition Yposition Zposition Zrotation Xrotation Yrotation
            End Site
            {
              OFFSET 0 0 0
            }
          }
        }
      }
      JOINT L_kata
      {
        OFFSET -22.6695 9.65298 -5.3622
        CHANNELS 6 Xposition Yposition Zposition Zrotation Xrotation Yrotation
        JOINT L_hiji
        {
          OFFSET 0 25.813 1.69102
          CHANNELS 6 Xposition Yposition Zposition Zrotation Xrotation Yrotation
          JOINT L_te
          {
            OFFSET 0 28.5636 -0.966295
            CHANNELS 6 Xposition Yposition Zposition Zrotation Xrotation Yrotation
            End Site
            {
              OFFSET 0 0 0
            }
          }
        }
      }
      JOINT kubi
      {
        OFFSET 0 23.1438 -0.944988
        CHANNELS 6 Xposition Yposition Zposition Zrotation Xrotation Yrotation
        JOINT atama
        {
          OFFSET 0 20.8625 4.12737
          CHANNELS 6 Xposition Yposition Zposition Zrotation Xrotation Yrotation
          JOINT ago
          {
            OFFSET 0 7.552 -7.58201
            CHANNELS 6 Xposition Yposition Zposition Zrotation Xrotation Yrotation
            End Site
            {
              OFFSET 0 0 0
            }
          }
        }
      }
    }
  }
}
MOTION
Frames:	4
Frame Time:	0.0333333
133.17 30.8556 1.41369 -90 -3.50835e-015 -90 0 0 0 -177.727 -2.94999 0.277531 -2.98023e-007 42.8363 -0.548134 -1.34797 -7.47681 7.90673 -2.48673e-006 44.0461 -3.28882 -8.17238 20.5726 2.25149 -1.36963e-006 34.1929 -2.46661 -10.122 12.0694 -2.67733 -3.25146e-006 30.0959 -1.75404 -8.31385 13.471 -8.55139 1.95371e-006 28.3637 -1.75403 -5.31395 -3.31669 5.84745 1.97052e-007 31.6072 -3.20429 -1.79817 -3.49921 -18.0886 -27.891 13.5892 3.92723 41.7445 -33.2209 -94.3281 -8.78311e-007 28.0099 1.8232 3.84111 -41.553 -27.5696 -2.23277e-006 24.3992 -2.49173 -155.884 40.6159 -164.987 27.891 13.5892 3.92714 -32.9806 -18.9705 49.9797 -3.63187e-006 28.0098 1.82319 -5.56341 -30.2006 52.0446 9.6584e-007 24.3992 -2.49171 148.991 70.6152 172.094 6.07685e-007 2.15392 0 -2.81213 -7.45846 -0.816752 -7.45058e-009 62.0609 0.472498 -1.0138e-013 -1.55301e-017 -9.93923e-017 22.6695 9.653 -5.36221 -165.266 14.0988 14.7126 -3.8147e-006 25.813 1.69098 0.0256953 -79.8031 -1.24867 -3.76648e-006 28.5636 -0.96631 95.2576 -35.2986 -54.2817 -22.6695 9.65297 -5.36221 173.695 4.78216 -31.2362 -3.8147e-006 25.813 1.69102 0.140425 -64.651 -1.97752 -7.52628e-006 28.5636 -0.966291 -72.3518 -30.1212 57.4229 -1.11337e-009 23.1438 -0.944994 1.10169 8.36725 -8.85357 1.86226e-009 20.8625 4.12737 2.5793 5.46051 -8.42127 -1.79412e-013 7.55202 -7.58202 -1.0018e-005 -0.631741 -1.0834e-007 
131.51 30.574 1.35525 -90 -3.50835e-015 -90 0 0 0 -177.47 -2.57003 0.285957 -2.98023e-007 42.8363 -0.548134 -1.18108 -8.22072 7.52759 -2.46465e-006 44.0461 -3.28882 -7.34948 22.7194 1.90796 -1.12659e-006 34.1929 -2.46661 -8.74329 11.0521 -3.53484 -3.15091e-006 30.0959 -1.75404 -7.67167 13.2649 -8.01265 1.89165e-006 28.3637 -1.75403 -4.45993 -2.00032 5.94583 -6.00123e-009 31.6072 -3.20429 -1.40519 -0.508627 -17.181 -27.891 13.5892 3.92723 45.2478 -33.9565 -91.4057 -9.123e-007 28.0099 1.8232 4.35358 -47.0647 -28.2537 -2.05503e-006 24.3992 -2.49173 -156.866 38.7665 -165.721 27.891 13.5892 3.92714 -36.8099 -15.5035 40.2095 -3.74117e-006 28.0098 1.82319 -7.18447 -40.3393 64.5022 1.5829e-006 24.3992 -2.49171 155.722 68.322 172.472 6.07685e-007 2.15392 3.55271e-015 -2.74643 -5.64338 -0.61371 -7.45058e-009 62.0609 0.472498 -1.01778e-013 -6.11884e-016 2.12203e-014 22.6695 9.653 -5.36221 -164.669 13.1198 14.9951 -3.8147e-006 25.813 1.69098 0.075262 -80.701 -1.8364 -3.75301e-006 28.5636 -0.96631 92.1052 -35.1708 -58.2941 -22.6695 9.65297 -5.36221 170.713 6.43302 -25.1961 -3.8147e-006 25.813 1.69102 0.147434 -66.2994 -2.08059 -7.52801e-006 28.5636 -0.966291 -76.5564 -23.5375 59.6266 -1.11337e-009 23.1438 -0.944994 1.62348 5.67592 -8.03402 1.86226e-009 20.8625 4.12737 2.01392 2.96734 -7.35726 -1.7053e-013 7.55202 -7.58202 -2.92266e-006 1.27306 1.00794e-005 
129.883 30.4258 1.29793 -90 -3.50835e-015 -90 0 0 0 -177.218 -2.19889 0.291745 -2.98023e-007 42.8363 -0.548134 -1.01667 -8.95259 7.15882 -2.44127e-006 44.0461 -3.28882 -6.31561 24.0706 1.32302 -8.50308e-007 34.1929 -2.46661 -7.40366 10.0416 -4.32655 -3.01972e-006 30.0959 -1.75404 -7.04232 13.0604 -7.47957 1.85652e-006 28.3637 -1.75403 -3.3114 -0.867522 5.9668 -2.3189e-007 31.6072 -3.20429 -0.898868 2.05242 -16.1943 -27.891 13.5892 3.92723 48.8458 -34.6205 -88.1918 -9.50531e-007 28.0099 1.8232 5.01107 -52.4644 -28.7681 -1.93229e-006 24.3992 -2.49174 -158.398 37.0601 -165.81 27.891 13.5892 3.92714 -42.0583 -14.2516 39.9903 -3.68102e-006 28.0098 1.82319 -8.60456 -50.2922 64.9598 1.59657e-006 24.3992 -2.49171 160.613 65.2936 172.354 6.07685e-007 2.15392 3.55271e-015 -2.57902 -3.79666 -0.429594 -7.45058e-009 62.0609 0.472498 -2.03158e-013 -1.92883e-015 6.38194e-009 22.6695 9.653 -5.36221 -164.084 12.1636 15.2921 -3.8147e-006 25.813 1.69098 0.133492 -81.5538 -2.07497 -3.75149e-006 28.5636 -0.966311 89.0882 -34.5829 -62.1917 -22.6695 9.65297 -5.36221 165.976 7.95108 -17.0314 -3.8147e-006 25.813 1.69102 0.161632 -68.8212 -2.2024 -7.53907e-006 28.5636 -0.966292 -80.3456 -17.0168 62.516 -1.11337e-009 23.1438 -0.944994 1.73697 4.53875 -5.20984 1.86226e-009 20.8625 4.12737 1.68431 2.1153 -4.65235 -1.74083e-013 7.55202 -7.58202 2.30062e-010 3.14087 4.33607e-009 
128.24 30.2761 1.24006 -90 -3.50835e-015 -90 0 0 0 -176.964 -1.82564 0.293579 -2.98023e-007 42.8363 -0.548134 -0.850425 -9.68931 6.79192 -2.41603e-006 44.0461 -3.28882 -5.15297 24.5351 0.5281 -5.58185e-007 34.1929 -2.46661 -6.06141 9.00926 -4.19953 -2.84399e-006 30.0959 -1.75404 -6.40803 12.8518 -6.93638 1.86138e-006 28.3637 -1.75403 -2.08835 0.116144 5.9022 -4.13705e-007 31.6072 -3.20429 -0.322805 4.03006 -15.1528 -27.891 13.5892 3.92723 52.503 -35.0432 -84.8233 -1.00161e-006 28.0099 1.8232 5.81206 -57.2649 -29.1645 -1.88018e-006 24.3992 -2.49174 -159.856 35.2968 -166.017 27.891 13.5892 3.92714 -45.9935 -13.1795 39.1917 -3.60529e-006 28.0098 1.82319 -10.2755 -57.467 61.9734 1.3108e-006 24.3992 -2.49171 163.941 64.6402 174.15 6.07685e-007 2.15392 0 -2.30583 -2.00018 -0.231137 -7.45058e-009 62.0609 0.472498 -1.01778e-013 2.01347e-015 1.79701e-013 22.6695 9.653 -5.36221 -163.5 11.0741 15.1215 -3.8147e-006 25.813 1.69098 0.205674 -82.4151 -2.30233 -3.75156e-006 28.5636 -0.966311 85.946 -33.741 -66.6842 -22.6695 9.65297 -5.36221 161.763 8.26054 -11.0483 -3.8147e-006 25.813 1.69102 0.179981 -71.393 -2.32131 -7.55596e-006 28.5636 -0.966295 -83.2427 -11.7348 66.1809 -1.11337e-009 23.1438 -0.944994 1.73675 4.44295 -1.35923 1.86227e-009 20.8625 4.12737 1.68465 2.40228 -1.27452 -1.77636e-013 7.55202 -7.58202 -1.00563e-005 5.02759 8.84005e-007 
